<svg id="Capa_1" enable-background="new 0 0 512 512" height="512" fill="rgb(255, 2, 129)" viewBox="0 0 512 512" width="512" xmlns="http://www.w3.org/2000/svg"><g><path d="m56.326 212.868v10.377c0 15.784 12.841 28.625 28.625 28.625s28.625-12.841 28.625-28.625v-10.377c0-15.784-12.841-28.625-28.625-28.625s-28.625 12.841-28.625 28.625zm42.25 0v10.377c0 7.513-6.112 13.625-13.625 13.625-7.513 0-13.625-6.112-13.625-13.625v-10.377c0-7.513 6.112-13.625 13.625-13.625s13.625 6.112 13.625 13.625z"/><path d="m169.95 212.868v10.377c0 15.784 12.841 28.625 28.625 28.625s28.625-12.841 28.625-28.625v-10.377c0-15.784-12.841-28.625-28.625-28.625s-28.625 12.841-28.625 28.625zm42.249 0v10.377c0 7.513-6.112 13.625-13.625 13.625s-13.625-6.112-13.625-13.625v-10.377c0-7.513 6.112-13.625 13.625-13.625s13.625 6.112 13.625 13.625z"/><path d="m340.823 223.245v-10.377c0-15.784-12.841-28.625-28.624-28.625-15.784 0-28.625 12.841-28.625 28.625v10.377c0 15.784 12.841 28.625 28.625 28.625 15.783-.001 28.624-12.842 28.624-28.625zm-42.249 0v-10.377c0-7.513 6.112-13.625 13.625-13.625s13.624 6.112 13.624 13.625v10.377c0 7.513-6.111 13.625-13.624 13.625s-13.625-6.113-13.625-13.625z"/><path d="m491.526 184.243h-94.377v-112.799c0-13.072-10.635-23.707-23.706-23.707h-288.492c-4.142 0-7.5 3.358-7.5 7.5s3.358 7.5 7.5 7.5h288.492c4.801 0 8.706 3.906 8.706 8.707v16.263c-2.697-1.069-5.633-1.664-8.706-1.664h-349.736c-3.073 0-6.009.594-8.707 1.664v-16.263c0-4.801 3.906-8.707 8.707-8.707h31.257c4.142 0 7.5-3.358 7.5-7.5s-3.358-7.5-7.5-7.5h-31.257c-13.072.001-23.707 10.636-23.707 23.707v250.862c0 13.072 10.635 23.707 23.707 23.707h48.787c.144 0 .277.071.356.192l26.027 39.683c2.861 4.362 7.684 6.966 12.9 6.966s10.038-2.604 12.898-6.966l26.028-39.684c.078-.12.211-.191.355-.191h40.016v60.272c0 11.289 9.185 20.474 20.474 20.474h172.601l20.497 31.253c2.567 3.913 6.895 6.249 11.575 6.249 4.68-.001 9.006-2.337 11.572-6.25l20.497-31.252h43.235c11.289 0 20.474-9.185 20.474-20.474v-29.945c0-4.143-3.357-7.5-7.5-7.5s-7.5 3.357-7.5 7.5v29.946c0 3.019-2.455 5.474-5.474 5.474h-43.861c-4.681 0-9.008 2.337-11.574 6.251l-19.871 30.298-19.871-30.3c-2.568-3.913-6.896-6.249-11.574-6.249h-173.226c-3.018 0-5.474-2.455-5.474-5.474v-60.272h34.932c4.142 0 7.5-3.357 7.5-7.5s-3.358-7.5-7.5-7.5h-89.948c-5.218 0-10.04 2.604-12.899 6.966l-26.027 39.683c-.05.077-.126.192-.356.192s-.306-.116-.356-.192l-26.027-39.683c-2.86-4.362-7.682-6.967-12.899-6.967h-48.787c-4.801 0-8.707-3.906-8.707-8.707v-212.556c0-4.801 3.906-8.707 8.707-8.707h349.736c4.801 0 8.706 3.906 8.706 8.707v212.556c0 4.801-3.905 8.707-8.706 8.707h-102.449c-4.143 0-7.5 3.357-7.5 7.5s3.357 7.5 7.5 7.5h102.449c13.071 0 23.706-10.635 23.706-23.707v-91.654h94.377c3.019 0 5.474 2.456 5.474 5.474v110.226c0 4.143 3.357 7.5 7.5 7.5s7.5-3.357 7.5-7.5v-141.635c0-11.289-9.185-20.474-20.474-20.474zm0 31.41h-94.377v-16.41h94.377c3.019 0 5.474 2.456 5.474 5.474v11.701c-1.746-.485-3.576-.765-5.474-.765z"/></g></svg>